<?xml version="1.0" encoding="utf-8"?>
<!-- Generator: Adobe Illustrator 16.0.0, SVG Export Plug-In . SVG Version: 6.00 Build 0)  -->
<!DOCTYPE svg PUBLIC "-//W3C//DTD SVG 1.1//EN" "http://www.w3.org/Graphics/SVG/1.1/DTD/svg11.dtd">
<svg version="1.1" id="Layer_1" xmlns="http://www.w3.org/2000/svg" xmlns:xlink="http://www.w3.org/1999/xlink" x="0px" y="0px"
	 width="356.891px" height="184.409px" viewBox="0 0 356.891 184.409" enable-background="new 0 0 356.891 184.409"
	 xml:space="preserve">
<g>
	<g>
		<path fill="#474745" d="M227.912,61.237h20.252v11.09h-32.87V16.072h12.618V61.237z"/>
	</g>
	<g>
		<path fill="#474745" d="M266.886,72.327h-12.618V16.072h12.618V72.327z"/>
	</g>
	<g>
		<path fill="#474745" d="M312.451,27.163h-23.627v11.493h21.296v11.09h-21.296v22.582h-12.617V16.072h36.244V27.163z"/>
	</g>
	<g>
		<path fill="#474745" d="M356.488,27.163h-24.43v11.493h22.502v11.09h-22.502v11.492h24.832v11.09h-37.45V16.072h37.048V27.163z"/>
	</g>
	<g>
		<path fill="#474745" d="M251.458,123.597h-13.501v45.166h-12.618v-45.166H212.24v-11.09h39.218V123.597z"/>
	</g>
	<g>
		<path fill="#474745" d="M296.461,168.763h-13.1l-3.697-12.86h-15.672l-3.616,12.86h-13.1l18.323-56.256h12.458L296.461,168.763z
			 M266.886,144.812h9.885l-4.901-17.679L266.886,144.812z"/>
	</g>
	<g>
		<path fill="#474745" d="M340.018,123.677l-9.967,4.18c-1.93-3.938-4.259-5.465-9.082-5.386c-5.705,0.081-8.357,2.572-8.357,8.922
			v18.966c0,5.385,2.732,8.117,8.277,8.117c5.064,0,7.797-2.251,7.797-8.117v-3.134h-8.037v-10.449h20.654v31.987h-9.161
			l-0.483-4.018c-2.894,3.213-6.99,4.82-12.215,4.82c-9.402,0-19.449-5.866-19.449-19.207v-18.966c0-6.35,1.928-11.333,5.786-14.788
			s8.922-5.224,15.188-5.224C330.854,111.381,337.445,115.962,340.018,123.677z"/>
	</g>
</g>
<g>
	<path fill="#474745" d="M184.41,184.409H0V0h184.41V184.409z M32.145,152.265h120.12V32.145H32.145V152.265z"/>
</g>
<g>
	<path fill="#5E6D87" d="M119.611,74.7h14.474v11.721H116.98l-3.587,15.07h17.342v11.721h-20.094l-5.024,21.529h-11.96l5.024-21.529
		h-18.42l-5.022,21.529h-11.96l5.021-21.529H53.83v-11.721h17.223l3.588-15.07H57.178V74.7h20.215l5.502-23.682h11.959L89.353,74.7
		h18.419l5.501-23.682h11.962L119.611,74.7z M86.602,86.421l-3.588,15.07h18.418l3.588-15.07H86.602z"/>
</g>
</svg>
