<?xml version="1.0" encoding="UTF-8" standalone="no"?>
<svg width="75px" height="74px" viewBox="0 0 75 74" version="1.1" xmlns="http://www.w3.org/2000/svg" xmlns:xlink="http://www.w3.org/1999/xlink" xmlns:sketch="http://www.bohemiancoding.com/sketch/ns">
    <!-- Generator: Sketch 3.2.2 (9983) - http://www.bohemiancoding.com/sketch -->
    <title>Imported Layers</title>
    <desc>Created with Sketch.</desc>
    <defs></defs>
    <g id="Welcome" stroke="none" stroke-width="1" fill="none" fill-rule="evenodd" sketch:type="MSPage">
        <g id="Desktop-HD" sketch:type="MSArtboardGroup" transform="translate(-681.000000, -342.000000)" fill="#FFFFFF">
            <g id="main" sketch:type="MSLayerGroup" transform="translate(176.000000, 233.000000)">
                <g id="Imported-Layers" transform="translate(505.000000, 109.000000)" sketch:type="MSShapeGroup">
                    <path d="M53,23.4333333 C52.909375,22.3356667 52.709375,21.2811667 52.4,20.2605833 C51.475,20.7169167 50.509375,21.0930833 49.471875,21.3089167 C48.634375,21.4846667 47.765625,21.5833333 46.875,21.5833333 C41.159375,21.5833333 36.39375,17.7785 34.903125,12.60775 C34.621875,11.6303333 34.434375,10.6159167 34.40625,9.55833333 C33.353125,9.768 32.340625,10.0794167 31.375,10.4833333 C25.790625,12.8328333 21.875,18.2995833 21.875,24.6666667 C21.875,33.1828333 28.86875,40.0833333 37.5,40.0833333 C46.13125,40.0833333 53.125,33.1828333 53.125,24.6666667 C53.125,24.24425 53.034375,23.8465 53,23.4333333 L53,23.4333333 Z M37.5,37 C30.596875,37 25,31.47775 25,24.6666667 C25,19.82275 27.85625,15.6725833 31.975,13.6560833 C33.90625,20.0046667 39.80625,24.6666667 46.875,24.6666667 C47.934375,24.6666667 48.96875,24.55875 49.96875,24.3583333 C49.971875,24.4631667 50,24.5618333 50,24.6666667 C50,31.47775 44.403125,37 37.5,37 L37.5,37 Z" id="Fill-1"></path>
                    <path d="M56.25,43.1666667 L18.75,43.1666667 C8.396875,43.1666667 0,51.4485 0,61.6666667 L0,70.9166667 C0,72.62175 1.396875,74 3.125,74 L71.875,74 C73.603125,74 75,72.62175 75,70.9166667 L75,61.6666667 C75,51.4485 66.603125,43.1666667 56.25,43.1666667 L56.25,43.1666667 Z M48.4375,49.3333333 L37.5,60.125 L26.5625,49.3333333 L48.4375,49.3333333 L48.4375,49.3333333 Z M68.75,67.8333333 L6.25,67.8333333 L6.25,61.6666667 C6.25,54.8555833 11.846875,49.3333333 18.75,49.3333333 L21.875,49.3333333 L37.5,64.75 L53.125,49.3333333 L56.25,49.3333333 C63.153125,49.3333333 68.75,54.8555833 68.75,61.6666667 L68.75,67.8333333 L68.75,67.8333333 Z" id="Fill-2"></path>
                    <path d="M27.146875,40.0833333 C22.0875,36.7718333 18.75,31.1046667 18.75,24.6666667 C18.75,14.4485 27.146875,6.16666667 37.5,6.16666667 C47.853125,6.16666667 56.25,14.4485 56.25,24.6666667 C56.25,31.1046667 52.9125,36.7718333 47.853125,40.0833333 L56.996875,40.0833333 C60.434375,35.8591667 62.5,30.5034167 62.5,24.6666667 C62.5,11.0445 51.30625,0 37.5,0 C23.69375,0 12.5,11.0445 12.5,24.6666667 C12.5,30.5034167 14.565625,35.8591667 18.003125,40.0833333 L27.146875,40.0833333" id="Fill-3"></path>
                </g>
            </g>
        </g>
    </g>
</svg>