<?xml version="1.0" encoding="utf-8"?>
<!-- Generator: Adobe Illustrator 16.0.0, SVG Export Plug-In . SVG Version: 6.00 Build 0)  -->
<!DOCTYPE svg PUBLIC "-//W3C//DTD SVG 1.1//EN" "http://www.w3.org/Graphics/SVG/1.1/DTD/svg11.dtd">
<svg version="1.1" id="Layer_1" xmlns="http://www.w3.org/2000/svg" xmlns:xlink="http://www.w3.org/1999/xlink" x="0px" y="0px"
	 width="24px" height="24px" viewBox="0 0 24 24" enable-background="new 0 0 24 24" xml:space="preserve">
<g>
</g>
<g>
	<path fill="#FFFFFF" d="M16.96,7.6c-0.029-0.355-0.093-0.697-0.192-1.028c-0.296,0.147-0.604,0.27-0.937,0.34
		C15.562,6.968,15.285,7,15,7c-1.829,0-3.354-1.234-3.831-2.911c-0.09-0.317-0.15-0.646-0.159-0.989
		c-0.337,0.068-0.661,0.169-0.97,0.301C8.253,4.162,7,5.935,7,8c0,2.762,2.238,5,5,5s5-2.238,5-5C17,7.863,16.971,7.734,16.96,7.6z
		 M12,12c-2.209,0-4-1.791-4-4c0-1.571,0.914-2.917,2.232-3.571C10.85,6.488,12.738,8,15,8c0.339,0,0.67-0.035,0.99-0.1
		C15.991,7.934,16,7.966,16,8C16,10.209,14.209,12,12,12z"/>
	<path fill="#FFFFFF" d="M18,14H6c-3.313,0-6,2.687-6,6v3c0,0.553,0.447,1,1,1h22c0.553,0,1-0.447,1-1v-3C24,16.687,21.313,14,18,14
		z M15.5,16L12,19.5L8.5,16H15.5z M22,22H2v-2c0-2.209,1.791-4,4-4h1l5,5l5-5h1c2.209,0,4,1.791,4,4V22z"/>
	<path fill="#FFFFFF" d="M8.687,13C7.068,11.926,6,10.088,6,8c0-3.313,2.687-6,6-6s6,2.687,6,6c0,2.088-1.068,3.926-2.687,5h2.926
		C19.339,11.63,20,9.893,20,8c0-4.418-3.582-8-8-8S4,3.582,4,8c0,1.893,0.661,3.63,1.761,5H8.687z"/>
</g>
</svg>
